<svg xmlns="http://www.w3.org/2000/svg" xmlns:xlink="http://www.w3.org/1999/xlink" viewBox="0 0 564 752"><defs><style>.cls-1{fill:url(#linear-gradient);}.cls-2{fill:#fff;}</style><linearGradient id="linear-gradient" x1="282" y1="751" x2="282" y2="1" gradientUnits="userSpaceOnUse"><stop offset="0" stop-color="blue"/><stop offset="0.14" stop-color="#0d4fdd"/><stop offset="0.26" stop-color="#1993bf"/><stop offset="0.44" stop-color="#2896a0"/><stop offset="0.68" stop-color="#3a9b79"/><stop offset="0.88" stop-color="#459d61"/><stop offset="1" stop-color="#499e58"/></linearGradient></defs><title>Asset 1</title><g id="Layer_2" data-name="Layer 2"><g id="Layer_1-2" data-name="Layer 1"><rect class="cls-1" x="1" y="1" width="562" height="750"/><path class="cls-2" d="M562,2V750H2V2H562m2-2H0V752H564V0Z"/><rect x="189" y="1" width="186" height="186"/><path class="cls-2" d="M374,2V186H190V2H374m2-2H188V188H376V0Z"/><rect x="1" y="1" width="186" height="186"/><path class="cls-2" d="M186,2V186H2V2H186m2-2H0V188H188V0Z"/><path class="cls-2" d="M378,4.83,559.17,186H378V4.83M376,0V188H564L376,0Z"/><rect x="1" y="189" width="186" height="186"/><path class="cls-2" d="M186,190V374H2V190H186m2-2H0V376H188V188Z"/><rect x="1" y="377" width="186" height="186"/><path class="cls-2" d="M186,378V562H2V378H186m2-2H0V564H188V376Z"/><rect x="1" y="565" width="186" height="186"/><path class="cls-2" d="M186,566V750H2V566H186m2-2H0V752H188V564Z"/><rect x="189" y="377" width="186" height="186"/><path class="cls-2" d="M374,378V562H190V378H374m2-2H188V564H376V376Z"/><path class="cls-2" d="M559.17,566,378,747.17V566H559.17m4.83-2H376V752L564,564Z"/><path class="cls-2" d="M562,2V183.17L380.83,2H562m2-2H376L564,188V0Z"/><path class="cls-2" d="M190,192.83,371.17,374H190V192.83M188,188V376H376L188,188Z"/><path class="cls-2" d="M374,190V371.17L192.83,190H374m2-2H188L376,376V188Z"/><path class="cls-2" d="M378,380.83,559.17,562H378V380.83M376,376V564H564L376,376Z"/><path class="cls-2" d="M562,378V559.17L380.83,378H562m2-2H376L564,564V376Z"/><path class="cls-2" d="M190,568.83,371.17,750H190V568.83M188,564V752H376L188,564Z"/><path class="cls-2" d="M374,566V747.17L192.83,566H374m2-2H188L376,752V564Z"/><path class="cls-2" d="M562,568.83V750H380.83L562,568.83m2-4.83L376,752H564V564Z"/><path class="cls-2" d="M559.17,190,378,371.17V190H559.17m4.83-2H376V376L564,188Z"/><path class="cls-2" d="M562,192.83V374H380.83L562,192.83m2-4.83L376,376H564V188Z"/></g></g></svg>