<svg xmlns="http://www.w3.org/2000/svg" xmlns:xlink="http://www.w3.org/1999/xlink" viewBox="0 0 274.86 455.14"><defs><style>.cls-1,.cls-3{stroke:#fff;stroke-miterlimit:10;stroke-width:4px;}.cls-2{fill:#fff;}.cls-3{fill:none;}.cls-4{fill:url(#linear-gradient);}</style><linearGradient id="linear-gradient" x1="137.43" y1="361.14" x2="137.43" y2="4" gradientUnits="userSpaceOnUse"><stop offset="0" stop-color="blue"/><stop offset="0.14" stop-color="#0d4fdd"/><stop offset="0.26" stop-color="#1993bf"/><stop offset="0.44" stop-color="#2896a0"/><stop offset="0.68" stop-color="#3a9b79"/><stop offset="0.88" stop-color="#459d61"/><stop offset="1" stop-color="#499e58"/></linearGradient></defs><title>logosmall</title><g id="Layer_2" data-name="Layer 2"><g id="Layer_1-2" data-name="Layer 1"><rect class="cls-1" x="2" y="362.86" width="90.29" height="90.29"/><rect x="4" y="364.86" width="86.29" height="86.29"/><path class="cls-2" d="M88.29,366.86v82.29H6V366.86H88.29m4-4H2v90.29H92.29V362.86Z"/><rect class="cls-3" x="2" y="2" width="270.86" height="361.14"/><rect class="cls-4" x="4" y="4" width="266.86" height="357.14"/><path class="cls-2" d="M268.86,6V359.14H6V6H268.86m4-4H2V363.14H272.86V2Z"/><rect x="94.29" y="4" width="86.29" height="86.29"/><path class="cls-2" d="M178.57,6V88.29H96.29V6h82.29m4-4H92.29V92.29h90.29V2Z"/><rect x="4" y="4" width="86.29" height="86.29"/><path class="cls-2" d="M88.29,6V88.29H6V6H88.29m4-4H2V92.29H92.29V2Z"/><path class="cls-2" d="M186.57,11.66,263.2,88.29H186.57V11.66m-4-9.66V92.29h90.29L182.57,2Z"/><rect x="4" y="94.29" width="86.29" height="86.29"/><path class="cls-2" d="M88.29,96.29v82.29H6V96.29H88.29m4-4H2v90.29H92.29V92.29Z"/><rect x="4" y="184.57" width="86.29" height="86.29"/><path class="cls-2" d="M88.29,186.57v82.29H6V186.57H88.29m4-4H2v90.29H92.29V182.57Z"/><rect x="4" y="274.86" width="86.29" height="86.29"/><path class="cls-2" d="M88.29,276.86v82.29H6V276.86H88.29m4-4H2v90.29H92.29V272.86Z"/><rect x="94.29" y="184.57" width="86.29" height="86.29"/><path class="cls-2" d="M178.57,186.57v82.29H96.29V186.57h82.29m4-4H92.29v90.29h90.29V182.57Z"/><path class="cls-2" d="M263.2,276.86l-76.63,76.63V276.86H263.2m9.66-4H182.57v90.29l90.29-90.29Z"/><path class="cls-2" d="M268.86,6V82.63L192.23,6h76.63m4-4H182.57l90.29,90.29V2Z"/><path class="cls-2" d="M96.29,101.94l76.63,76.63H96.29V101.94m-4-9.66v90.29h90.29L92.29,92.29Z"/><path class="cls-2" d="M178.57,96.29v76.63L101.94,96.29h76.63m4-4H92.29l90.29,90.29V92.29Z"/><path class="cls-2" d="M186.57,192.23l76.63,76.63H186.57V192.23m-4-9.66v90.29h90.29l-90.29-90.29Z"/><path class="cls-2" d="M268.86,186.57V263.2l-76.63-76.63h76.63m4-4H182.57l90.29,90.29V182.57Z"/><path class="cls-2" d="M96.29,282.51l76.63,76.63H96.29V282.51m-4-9.66v90.29h90.29L92.29,272.86Z"/><path class="cls-2" d="M178.57,276.86v76.63l-76.63-76.63h76.63m4-4H92.29l90.29,90.29V272.86Z"/><path class="cls-2" d="M268.86,282.51v76.63H192.23l76.63-76.63m4-9.66-90.29,90.29h90.29V272.86Z"/><path class="cls-2" d="M263.2,96.29l-76.63,76.63V96.29H263.2m9.66-4H182.57v90.29l90.29-90.29Z"/><path class="cls-2" d="M268.86,101.94v76.63H192.23l76.63-76.63m4-9.66-90.29,90.29h90.29V92.29Z"/></g></g></svg>