<svg xmlns="http://www.w3.org/2000/svg" xmlns:xlink="http://www.w3.org/1999/xlink" viewBox="0 0 580 768"><defs><style>.cls-1{fill:none;stroke:#fff;stroke-miterlimit:10;stroke-width:16px;}.cls-2{fill:url(#linear-gradient);}.cls-3{fill:#fff;}</style><linearGradient id="linear-gradient" x1="290" y1="756" x2="290" y2="12" gradientUnits="userSpaceOnUse"><stop offset="0" stop-color="blue"/><stop offset="0.14" stop-color="#0d4fdd"/><stop offset="0.26" stop-color="#1993bf"/><stop offset="0.44" stop-color="#2896a0"/><stop offset="0.68" stop-color="#3a9b79"/><stop offset="0.88" stop-color="#459d61"/><stop offset="1" stop-color="#499e58"/></linearGradient></defs><title>logosmall</title><g id="Layer_2" data-name="Layer 2"><g id="Layer_1-2" data-name="Layer 1"><rect class="cls-1" x="8" y="8" width="564" height="752"/><rect class="cls-2" x="12" y="12" width="556" height="744"/><path class="cls-3" d="M564,16V752H16V16H564m8-8H8V760H572V8Z"/><rect x="200" y="12" width="180" height="180"/><path class="cls-3" d="M376,16V188H204V16H376m8-8H196V196H384V8Z"/><rect x="12" y="12" width="180" height="180"/><path class="cls-3" d="M188,16V188H16V16H188m8-8H8V196H196V8Z"/><path class="cls-3" d="M392,27.31,552.69,188H392V27.31M384,8V196H572L384,8Z"/><rect x="12" y="200" width="180" height="180"/><path class="cls-3" d="M188,204V376H16V204H188m8-8H8V384H196V196Z"/><rect x="12" y="388" width="180" height="180"/><path class="cls-3" d="M188,392V564H16V392H188m8-8H8V572H196V384Z"/><rect x="12" y="576" width="180" height="180"/><path class="cls-3" d="M188,580V752H16V580H188m8-8H8V760H196V572Z"/><rect x="200" y="388" width="180" height="180"/><path class="cls-3" d="M376,392V564H204V392H376m8-8H196V572H384V384Z"/><path class="cls-3" d="M552.69,580,392,740.69V580H552.69M572,572H384V760L572,572Z"/><path class="cls-3" d="M564,16V176.69L403.31,16H564m8-8H384L572,196V8Z"/><path class="cls-3" d="M204,215.31,364.69,376H204V215.31M196,196V384H384L196,196Z"/><path class="cls-3" d="M376,204V364.69L215.31,204H376m8-8H196L384,384V196Z"/><path class="cls-3" d="M392,403.31,552.69,564H392V403.31M384,384V572H572L384,384Z"/><path class="cls-3" d="M564,392V552.69L403.31,392H564m8-8H384L572,572V384Z"/><path class="cls-3" d="M204,591.31,364.69,752H204V591.31M196,572V760H384L196,572Z"/><path class="cls-3" d="M376,580V740.69L215.31,580H376m8-8H196L384,760V572Z"/><path class="cls-3" d="M564,591.31V752H403.31L564,591.31M572,572,384,760H572V572Z"/><path class="cls-3" d="M552.69,204,392,364.69V204H552.69M572,196H384V384L572,196Z"/><path class="cls-3" d="M564,215.31V376H403.31L564,215.31M572,196,384,384H572V196Z"/></g></g></svg>